<?xml version="1.0" encoding="utf-8" standalone="no"?>
<!DOCTYPE svg PUBLIC "-//W3C//DTD SVG 1.1//EN"
  "http://www.w3.org/Graphics/SVG/1.1/DTD/svg11.dtd">
<svg xmlns:xlink="http://www.w3.org/1999/xlink" width="432pt" height="360pt" viewBox="0 0 432 360" xmlns="http://www.w3.org/2000/svg" version="1.1">
 <metadata>
  <rdf:RDF xmlns:dc="http://purl.org/dc/elements/1.1/" xmlns:cc="http://creativecommons.org/ns#" xmlns:rdf="http://www.w3.org/1999/02/22-rdf-syntax-ns#">
   <cc:Work>
    <dc:type rdf:resource="http://purl.org/dc/dcmitype/StillImage"/>
    <dc:date>2024-08-02T20:41:27.810526</dc:date>
    <dc:format>image/svg+xml</dc:format>
    <dc:creator>
     <cc:Agent>
      <dc:title>Matplotlib v3.7.5, https://matplotlib.org/</dc:title>
     </cc:Agent>
    </dc:creator>
   </cc:Work>
  </rdf:RDF>
 </metadata>
 <defs>
  <style type="text/css">*{stroke-linejoin: round; stroke-linecap: butt}</style>
 </defs>
 <g id="figure_1">
  <g id="patch_1">
   <path d="M 0 360 
L 432 360 
L 432 0 
L 0 0 
z
" style="fill: #ffffff"/>
  </g>
  <g id="axes_1">
   <g id="patch_2">
    <path d="M 54 320.4 
L 388.8 320.4 
L 388.8 43.2 
L 54 43.2 
z
" style="fill: #ffffff"/>
   </g>
   <g id="matplotlib.axis_1">
    <g id="xtick_1">
     <g id="line2d_1">
      <defs>
       <path id="m969fc1cc48" d="M 0 0 
L 0 3.5 
" style="stroke: #000000; stroke-width: 0.8"/>
      </defs>
      <g>
       <use xlink:href="#m969fc1cc48" x="54" y="320.4" style="stroke: #000000; stroke-width: 0.8"/>
      </g>
     </g>
     <g id="text_1">
      <!-- 0.0 -->
      <g transform="translate(46.048437 334.998438) scale(0.1 -0.1)">
       <defs>
        <path id="DejaVuSans-30" d="M 2034 4250 
Q 1547 4250 1301 3770 
Q 1056 3291 1056 2328 
Q 1056 1369 1301 889 
Q 1547 409 2034 409 
Q 2525 409 2770 889 
Q 3016 1369 3016 2328 
Q 3016 3291 2770 3770 
Q 2525 4250 2034 4250 
z
M 2034 4750 
Q 2819 4750 3233 4129 
Q 3647 3509 3647 2328 
Q 3647 1150 3233 529 
Q 2819 -91 2034 -91 
Q 1250 -91 836 529 
Q 422 1150 422 2328 
Q 422 3509 836 4129 
Q 1250 4750 2034 4750 
z
" transform="scale(0.015625)"/>
        <path id="DejaVuSans-2e" d="M 684 794 
L 1344 794 
L 1344 0 
L 684 0 
L 684 794 
z
" transform="scale(0.015625)"/>
       </defs>
       <use xlink:href="#DejaVuSans-30"/>
       <use xlink:href="#DejaVuSans-2e" x="63.623047"/>
       <use xlink:href="#DejaVuSans-30" x="95.410156"/>
      </g>
     </g>
    </g>
    <g id="xtick_2">
     <g id="line2d_2">
      <g>
       <use xlink:href="#m969fc1cc48" x="120.96" y="320.4" style="stroke: #000000; stroke-width: 0.8"/>
      </g>
     </g>
     <g id="text_2">
      <!-- 0.2 -->
      <g transform="translate(113.008438 334.998438) scale(0.1 -0.1)">
       <defs>
        <path id="DejaVuSans-32" d="M 1228 531 
L 3431 531 
L 3431 0 
L 469 0 
L 469 531 
Q 828 903 1448 1529 
Q 2069 2156 2228 2338 
Q 2531 2678 2651 2914 
Q 2772 3150 2772 3378 
Q 2772 3750 2511 3984 
Q 2250 4219 1831 4219 
Q 1534 4219 1204 4116 
Q 875 4013 500 3803 
L 500 4441 
Q 881 4594 1212 4672 
Q 1544 4750 1819 4750 
Q 2544 4750 2975 4387 
Q 3406 4025 3406 3419 
Q 3406 3131 3298 2873 
Q 3191 2616 2906 2266 
Q 2828 2175 2409 1742 
Q 1991 1309 1228 531 
z
" transform="scale(0.015625)"/>
       </defs>
       <use xlink:href="#DejaVuSans-30"/>
       <use xlink:href="#DejaVuSans-2e" x="63.623047"/>
       <use xlink:href="#DejaVuSans-32" x="95.410156"/>
      </g>
     </g>
    </g>
    <g id="xtick_3">
     <g id="line2d_3">
      <g>
       <use xlink:href="#m969fc1cc48" x="187.92" y="320.4" style="stroke: #000000; stroke-width: 0.8"/>
      </g>
     </g>
     <g id="text_3">
      <!-- 0.4 -->
      <g transform="translate(179.968438 334.998438) scale(0.1 -0.1)">
       <defs>
        <path id="DejaVuSans-34" d="M 2419 4116 
L 825 1625 
L 2419 1625 
L 2419 4116 
z
M 2253 4666 
L 3047 4666 
L 3047 1625 
L 3713 1625 
L 3713 1100 
L 3047 1100 
L 3047 0 
L 2419 0 
L 2419 1100 
L 313 1100 
L 313 1709 
L 2253 4666 
z
" transform="scale(0.015625)"/>
       </defs>
       <use xlink:href="#DejaVuSans-30"/>
       <use xlink:href="#DejaVuSans-2e" x="63.623047"/>
       <use xlink:href="#DejaVuSans-34" x="95.410156"/>
      </g>
     </g>
    </g>
    <g id="xtick_4">
     <g id="line2d_4">
      <g>
       <use xlink:href="#m969fc1cc48" x="254.88" y="320.4" style="stroke: #000000; stroke-width: 0.8"/>
      </g>
     </g>
     <g id="text_4">
      <!-- 0.6 -->
      <g transform="translate(246.928438 334.998438) scale(0.1 -0.1)">
       <defs>
        <path id="DejaVuSans-36" d="M 2113 2584 
Q 1688 2584 1439 2293 
Q 1191 2003 1191 1497 
Q 1191 994 1439 701 
Q 1688 409 2113 409 
Q 2538 409 2786 701 
Q 3034 994 3034 1497 
Q 3034 2003 2786 2293 
Q 2538 2584 2113 2584 
z
M 3366 4563 
L 3366 3988 
Q 3128 4100 2886 4159 
Q 2644 4219 2406 4219 
Q 1781 4219 1451 3797 
Q 1122 3375 1075 2522 
Q 1259 2794 1537 2939 
Q 1816 3084 2150 3084 
Q 2853 3084 3261 2657 
Q 3669 2231 3669 1497 
Q 3669 778 3244 343 
Q 2819 -91 2113 -91 
Q 1303 -91 875 529 
Q 447 1150 447 2328 
Q 447 3434 972 4092 
Q 1497 4750 2381 4750 
Q 2619 4750 2861 4703 
Q 3103 4656 3366 4563 
z
" transform="scale(0.015625)"/>
       </defs>
       <use xlink:href="#DejaVuSans-30"/>
       <use xlink:href="#DejaVuSans-2e" x="63.623047"/>
       <use xlink:href="#DejaVuSans-36" x="95.410156"/>
      </g>
     </g>
    </g>
    <g id="xtick_5">
     <g id="line2d_5">
      <g>
       <use xlink:href="#m969fc1cc48" x="321.84" y="320.4" style="stroke: #000000; stroke-width: 0.8"/>
      </g>
     </g>
     <g id="text_5">
      <!-- 0.8 -->
      <g transform="translate(313.888438 334.998438) scale(0.1 -0.1)">
       <defs>
        <path id="DejaVuSans-38" d="M 2034 2216 
Q 1584 2216 1326 1975 
Q 1069 1734 1069 1313 
Q 1069 891 1326 650 
Q 1584 409 2034 409 
Q 2484 409 2743 651 
Q 3003 894 3003 1313 
Q 3003 1734 2745 1975 
Q 2488 2216 2034 2216 
z
M 1403 2484 
Q 997 2584 770 2862 
Q 544 3141 544 3541 
Q 544 4100 942 4425 
Q 1341 4750 2034 4750 
Q 2731 4750 3128 4425 
Q 3525 4100 3525 3541 
Q 3525 3141 3298 2862 
Q 3072 2584 2669 2484 
Q 3125 2378 3379 2068 
Q 3634 1759 3634 1313 
Q 3634 634 3220 271 
Q 2806 -91 2034 -91 
Q 1263 -91 848 271 
Q 434 634 434 1313 
Q 434 1759 690 2068 
Q 947 2378 1403 2484 
z
M 1172 3481 
Q 1172 3119 1398 2916 
Q 1625 2713 2034 2713 
Q 2441 2713 2670 2916 
Q 2900 3119 2900 3481 
Q 2900 3844 2670 4047 
Q 2441 4250 2034 4250 
Q 1625 4250 1398 4047 
Q 1172 3844 1172 3481 
z
" transform="scale(0.015625)"/>
       </defs>
       <use xlink:href="#DejaVuSans-30"/>
       <use xlink:href="#DejaVuSans-2e" x="63.623047"/>
       <use xlink:href="#DejaVuSans-38" x="95.410156"/>
      </g>
     </g>
    </g>
    <g id="xtick_6">
     <g id="line2d_6">
      <g>
       <use xlink:href="#m969fc1cc48" x="388.8" y="320.4" style="stroke: #000000; stroke-width: 0.8"/>
      </g>
     </g>
     <g id="text_6">
      <!-- 1.0 -->
      <g transform="translate(380.848437 334.998438) scale(0.1 -0.1)">
       <defs>
        <path id="DejaVuSans-31" d="M 794 531 
L 1825 531 
L 1825 4091 
L 703 3866 
L 703 4441 
L 1819 4666 
L 2450 4666 
L 2450 531 
L 3481 531 
L 3481 0 
L 794 0 
L 794 531 
z
" transform="scale(0.015625)"/>
       </defs>
       <use xlink:href="#DejaVuSans-31"/>
       <use xlink:href="#DejaVuSans-2e" x="63.623047"/>
       <use xlink:href="#DejaVuSans-30" x="95.410156"/>
      </g>
     </g>
    </g>
    <g id="text_7">
     <!-- 1 - Specificity (False Positive Rate) -->
     <g transform="translate(135.509375 348.676562) scale(0.1 -0.1)">
      <defs>
       <path id="DejaVuSans-20" transform="scale(0.015625)"/>
       <path id="DejaVuSans-2d" d="M 313 2009 
L 1997 2009 
L 1997 1497 
L 313 1497 
L 313 2009 
z
" transform="scale(0.015625)"/>
       <path id="DejaVuSans-53" d="M 3425 4513 
L 3425 3897 
Q 3066 4069 2747 4153 
Q 2428 4238 2131 4238 
Q 1616 4238 1336 4038 
Q 1056 3838 1056 3469 
Q 1056 3159 1242 3001 
Q 1428 2844 1947 2747 
L 2328 2669 
Q 3034 2534 3370 2195 
Q 3706 1856 3706 1288 
Q 3706 609 3251 259 
Q 2797 -91 1919 -91 
Q 1588 -91 1214 -16 
Q 841 59 441 206 
L 441 856 
Q 825 641 1194 531 
Q 1563 422 1919 422 
Q 2459 422 2753 634 
Q 3047 847 3047 1241 
Q 3047 1584 2836 1778 
Q 2625 1972 2144 2069 
L 1759 2144 
Q 1053 2284 737 2584 
Q 422 2884 422 3419 
Q 422 4038 858 4394 
Q 1294 4750 2059 4750 
Q 2388 4750 2728 4690 
Q 3069 4631 3425 4513 
z
" transform="scale(0.015625)"/>
       <path id="DejaVuSans-70" d="M 1159 525 
L 1159 -1331 
L 581 -1331 
L 581 3500 
L 1159 3500 
L 1159 2969 
Q 1341 3281 1617 3432 
Q 1894 3584 2278 3584 
Q 2916 3584 3314 3078 
Q 3713 2572 3713 1747 
Q 3713 922 3314 415 
Q 2916 -91 2278 -91 
Q 1894 -91 1617 61 
Q 1341 213 1159 525 
z
M 3116 1747 
Q 3116 2381 2855 2742 
Q 2594 3103 2138 3103 
Q 1681 3103 1420 2742 
Q 1159 2381 1159 1747 
Q 1159 1113 1420 752 
Q 1681 391 2138 391 
Q 2594 391 2855 752 
Q 3116 1113 3116 1747 
z
" transform="scale(0.015625)"/>
       <path id="DejaVuSans-65" d="M 3597 1894 
L 3597 1613 
L 953 1613 
Q 991 1019 1311 708 
Q 1631 397 2203 397 
Q 2534 397 2845 478 
Q 3156 559 3463 722 
L 3463 178 
Q 3153 47 2828 -22 
Q 2503 -91 2169 -91 
Q 1331 -91 842 396 
Q 353 884 353 1716 
Q 353 2575 817 3079 
Q 1281 3584 2069 3584 
Q 2775 3584 3186 3129 
Q 3597 2675 3597 1894 
z
M 3022 2063 
Q 3016 2534 2758 2815 
Q 2500 3097 2075 3097 
Q 1594 3097 1305 2825 
Q 1016 2553 972 2059 
L 3022 2063 
z
" transform="scale(0.015625)"/>
       <path id="DejaVuSans-63" d="M 3122 3366 
L 3122 2828 
Q 2878 2963 2633 3030 
Q 2388 3097 2138 3097 
Q 1578 3097 1268 2742 
Q 959 2388 959 1747 
Q 959 1106 1268 751 
Q 1578 397 2138 397 
Q 2388 397 2633 464 
Q 2878 531 3122 666 
L 3122 134 
Q 2881 22 2623 -34 
Q 2366 -91 2075 -91 
Q 1284 -91 818 406 
Q 353 903 353 1747 
Q 353 2603 823 3093 
Q 1294 3584 2113 3584 
Q 2378 3584 2631 3529 
Q 2884 3475 3122 3366 
z
" transform="scale(0.015625)"/>
       <path id="DejaVuSans-69" d="M 603 3500 
L 1178 3500 
L 1178 0 
L 603 0 
L 603 3500 
z
M 603 4863 
L 1178 4863 
L 1178 4134 
L 603 4134 
L 603 4863 
z
" transform="scale(0.015625)"/>
       <path id="DejaVuSans-66" d="M 2375 4863 
L 2375 4384 
L 1825 4384 
Q 1516 4384 1395 4259 
Q 1275 4134 1275 3809 
L 1275 3500 
L 2222 3500 
L 2222 3053 
L 1275 3053 
L 1275 0 
L 697 0 
L 697 3053 
L 147 3053 
L 147 3500 
L 697 3500 
L 697 3744 
Q 697 4328 969 4595 
Q 1241 4863 1831 4863 
L 2375 4863 
z
" transform="scale(0.015625)"/>
       <path id="DejaVuSans-74" d="M 1172 4494 
L 1172 3500 
L 2356 3500 
L 2356 3053 
L 1172 3053 
L 1172 1153 
Q 1172 725 1289 603 
Q 1406 481 1766 481 
L 2356 481 
L 2356 0 
L 1766 0 
Q 1100 0 847 248 
Q 594 497 594 1153 
L 594 3053 
L 172 3053 
L 172 3500 
L 594 3500 
L 594 4494 
L 1172 4494 
z
" transform="scale(0.015625)"/>
       <path id="DejaVuSans-79" d="M 2059 -325 
Q 1816 -950 1584 -1140 
Q 1353 -1331 966 -1331 
L 506 -1331 
L 506 -850 
L 844 -850 
Q 1081 -850 1212 -737 
Q 1344 -625 1503 -206 
L 1606 56 
L 191 3500 
L 800 3500 
L 1894 763 
L 2988 3500 
L 3597 3500 
L 2059 -325 
z
" transform="scale(0.015625)"/>
       <path id="DejaVuSans-28" d="M 1984 4856 
Q 1566 4138 1362 3434 
Q 1159 2731 1159 2009 
Q 1159 1288 1364 580 
Q 1569 -128 1984 -844 
L 1484 -844 
Q 1016 -109 783 600 
Q 550 1309 550 2009 
Q 550 2706 781 3412 
Q 1013 4119 1484 4856 
L 1984 4856 
z
" transform="scale(0.015625)"/>
       <path id="DejaVuSans-46" d="M 628 4666 
L 3309 4666 
L 3309 4134 
L 1259 4134 
L 1259 2759 
L 3109 2759 
L 3109 2228 
L 1259 2228 
L 1259 0 
L 628 0 
L 628 4666 
z
" transform="scale(0.015625)"/>
       <path id="DejaVuSans-61" d="M 2194 1759 
Q 1497 1759 1228 1600 
Q 959 1441 959 1056 
Q 959 750 1161 570 
Q 1363 391 1709 391 
Q 2188 391 2477 730 
Q 2766 1069 2766 1631 
L 2766 1759 
L 2194 1759 
z
M 3341 1997 
L 3341 0 
L 2766 0 
L 2766 531 
Q 2569 213 2275 61 
Q 1981 -91 1556 -91 
Q 1019 -91 701 211 
Q 384 513 384 1019 
Q 384 1609 779 1909 
Q 1175 2209 1959 2209 
L 2766 2209 
L 2766 2266 
Q 2766 2663 2505 2880 
Q 2244 3097 1772 3097 
Q 1472 3097 1187 3025 
Q 903 2953 641 2809 
L 641 3341 
Q 956 3463 1253 3523 
Q 1550 3584 1831 3584 
Q 2591 3584 2966 3190 
Q 3341 2797 3341 1997 
z
" transform="scale(0.015625)"/>
       <path id="DejaVuSans-6c" d="M 603 4863 
L 1178 4863 
L 1178 0 
L 603 0 
L 603 4863 
z
" transform="scale(0.015625)"/>
       <path id="DejaVuSans-73" d="M 2834 3397 
L 2834 2853 
Q 2591 2978 2328 3040 
Q 2066 3103 1784 3103 
Q 1356 3103 1142 2972 
Q 928 2841 928 2578 
Q 928 2378 1081 2264 
Q 1234 2150 1697 2047 
L 1894 2003 
Q 2506 1872 2764 1633 
Q 3022 1394 3022 966 
Q 3022 478 2636 193 
Q 2250 -91 1575 -91 
Q 1294 -91 989 -36 
Q 684 19 347 128 
L 347 722 
Q 666 556 975 473 
Q 1284 391 1588 391 
Q 1994 391 2212 530 
Q 2431 669 2431 922 
Q 2431 1156 2273 1281 
Q 2116 1406 1581 1522 
L 1381 1569 
Q 847 1681 609 1914 
Q 372 2147 372 2553 
Q 372 3047 722 3315 
Q 1072 3584 1716 3584 
Q 2034 3584 2315 3537 
Q 2597 3491 2834 3397 
z
" transform="scale(0.015625)"/>
       <path id="DejaVuSans-50" d="M 1259 4147 
L 1259 2394 
L 2053 2394 
Q 2494 2394 2734 2622 
Q 2975 2850 2975 3272 
Q 2975 3691 2734 3919 
Q 2494 4147 2053 4147 
L 1259 4147 
z
M 628 4666 
L 2053 4666 
Q 2838 4666 3239 4311 
Q 3641 3956 3641 3272 
Q 3641 2581 3239 2228 
Q 2838 1875 2053 1875 
L 1259 1875 
L 1259 0 
L 628 0 
L 628 4666 
z
" transform="scale(0.015625)"/>
       <path id="DejaVuSans-6f" d="M 1959 3097 
Q 1497 3097 1228 2736 
Q 959 2375 959 1747 
Q 959 1119 1226 758 
Q 1494 397 1959 397 
Q 2419 397 2687 759 
Q 2956 1122 2956 1747 
Q 2956 2369 2687 2733 
Q 2419 3097 1959 3097 
z
M 1959 3584 
Q 2709 3584 3137 3096 
Q 3566 2609 3566 1747 
Q 3566 888 3137 398 
Q 2709 -91 1959 -91 
Q 1206 -91 779 398 
Q 353 888 353 1747 
Q 353 2609 779 3096 
Q 1206 3584 1959 3584 
z
" transform="scale(0.015625)"/>
       <path id="DejaVuSans-76" d="M 191 3500 
L 800 3500 
L 1894 563 
L 2988 3500 
L 3597 3500 
L 2284 0 
L 1503 0 
L 191 3500 
z
" transform="scale(0.015625)"/>
       <path id="DejaVuSans-52" d="M 2841 2188 
Q 3044 2119 3236 1894 
Q 3428 1669 3622 1275 
L 4263 0 
L 3584 0 
L 2988 1197 
Q 2756 1666 2539 1819 
Q 2322 1972 1947 1972 
L 1259 1972 
L 1259 0 
L 628 0 
L 628 4666 
L 2053 4666 
Q 2853 4666 3247 4331 
Q 3641 3997 3641 3322 
Q 3641 2881 3436 2590 
Q 3231 2300 2841 2188 
z
M 1259 4147 
L 1259 2491 
L 2053 2491 
Q 2509 2491 2742 2702 
Q 2975 2913 2975 3322 
Q 2975 3731 2742 3939 
Q 2509 4147 2053 4147 
L 1259 4147 
z
" transform="scale(0.015625)"/>
       <path id="DejaVuSans-29" d="M 513 4856 
L 1013 4856 
Q 1481 4119 1714 3412 
Q 1947 2706 1947 2009 
Q 1947 1309 1714 600 
Q 1481 -109 1013 -844 
L 513 -844 
Q 928 -128 1133 580 
Q 1338 1288 1338 2009 
Q 1338 2731 1133 3434 
Q 928 4138 513 4856 
z
" transform="scale(0.015625)"/>
      </defs>
      <use xlink:href="#DejaVuSans-31"/>
      <use xlink:href="#DejaVuSans-20" x="63.623047"/>
      <use xlink:href="#DejaVuSans-2d" x="95.410156"/>
      <use xlink:href="#DejaVuSans-20" x="131.494141"/>
      <use xlink:href="#DejaVuSans-53" x="163.28125"/>
      <use xlink:href="#DejaVuSans-70" x="226.757812"/>
      <use xlink:href="#DejaVuSans-65" x="290.234375"/>
      <use xlink:href="#DejaVuSans-63" x="351.757812"/>
      <use xlink:href="#DejaVuSans-69" x="406.738281"/>
      <use xlink:href="#DejaVuSans-66" x="434.521484"/>
      <use xlink:href="#DejaVuSans-69" x="469.726562"/>
      <use xlink:href="#DejaVuSans-63" x="497.509766"/>
      <use xlink:href="#DejaVuSans-69" x="552.490234"/>
      <use xlink:href="#DejaVuSans-74" x="580.273438"/>
      <use xlink:href="#DejaVuSans-79" x="619.482422"/>
      <use xlink:href="#DejaVuSans-20" x="678.662109"/>
      <use xlink:href="#DejaVuSans-28" x="710.449219"/>
      <use xlink:href="#DejaVuSans-46" x="749.462891"/>
      <use xlink:href="#DejaVuSans-61" x="797.857422"/>
      <use xlink:href="#DejaVuSans-6c" x="859.136719"/>
      <use xlink:href="#DejaVuSans-73" x="886.919922"/>
      <use xlink:href="#DejaVuSans-65" x="939.019531"/>
      <use xlink:href="#DejaVuSans-20" x="1000.542969"/>
      <use xlink:href="#DejaVuSans-50" x="1032.330078"/>
      <use xlink:href="#DejaVuSans-6f" x="1089.007812"/>
      <use xlink:href="#DejaVuSans-73" x="1150.189453"/>
      <use xlink:href="#DejaVuSans-69" x="1202.289062"/>
      <use xlink:href="#DejaVuSans-74" x="1230.072266"/>
      <use xlink:href="#DejaVuSans-69" x="1269.28125"/>
      <use xlink:href="#DejaVuSans-76" x="1297.064453"/>
      <use xlink:href="#DejaVuSans-65" x="1356.244141"/>
      <use xlink:href="#DejaVuSans-20" x="1417.767578"/>
      <use xlink:href="#DejaVuSans-52" x="1449.554688"/>
      <use xlink:href="#DejaVuSans-61" x="1516.787109"/>
      <use xlink:href="#DejaVuSans-74" x="1578.066406"/>
      <use xlink:href="#DejaVuSans-65" x="1617.275391"/>
      <use xlink:href="#DejaVuSans-29" x="1678.798828"/>
     </g>
    </g>
   </g>
   <g id="matplotlib.axis_2">
    <g id="ytick_1">
     <g id="line2d_7">
      <defs>
       <path id="m518111edd8" d="M 0 0 
L -3.5 0 
" style="stroke: #000000; stroke-width: 0.8"/>
      </defs>
      <g>
       <use xlink:href="#m518111edd8" x="54" y="320.4" style="stroke: #000000; stroke-width: 0.8"/>
      </g>
     </g>
     <g id="text_8">
      <!-- 0.0 -->
      <g transform="translate(31.096875 324.199219) scale(0.1 -0.1)">
       <use xlink:href="#DejaVuSans-30"/>
       <use xlink:href="#DejaVuSans-2e" x="63.623047"/>
       <use xlink:href="#DejaVuSans-30" x="95.410156"/>
      </g>
     </g>
    </g>
    <g id="ytick_2">
     <g id="line2d_8">
      <g>
       <use xlink:href="#m518111edd8" x="54" y="267.6" style="stroke: #000000; stroke-width: 0.8"/>
      </g>
     </g>
     <g id="text_9">
      <!-- 0.2 -->
      <g transform="translate(31.096875 271.399219) scale(0.1 -0.1)">
       <use xlink:href="#DejaVuSans-30"/>
       <use xlink:href="#DejaVuSans-2e" x="63.623047"/>
       <use xlink:href="#DejaVuSans-32" x="95.410156"/>
      </g>
     </g>
    </g>
    <g id="ytick_3">
     <g id="line2d_9">
      <g>
       <use xlink:href="#m518111edd8" x="54" y="214.8" style="stroke: #000000; stroke-width: 0.8"/>
      </g>
     </g>
     <g id="text_10">
      <!-- 0.4 -->
      <g transform="translate(31.096875 218.599219) scale(0.1 -0.1)">
       <use xlink:href="#DejaVuSans-30"/>
       <use xlink:href="#DejaVuSans-2e" x="63.623047"/>
       <use xlink:href="#DejaVuSans-34" x="95.410156"/>
      </g>
     </g>
    </g>
    <g id="ytick_4">
     <g id="line2d_10">
      <g>
       <use xlink:href="#m518111edd8" x="54" y="162" style="stroke: #000000; stroke-width: 0.8"/>
      </g>
     </g>
     <g id="text_11">
      <!-- 0.6 -->
      <g transform="translate(31.096875 165.799219) scale(0.1 -0.1)">
       <use xlink:href="#DejaVuSans-30"/>
       <use xlink:href="#DejaVuSans-2e" x="63.623047"/>
       <use xlink:href="#DejaVuSans-36" x="95.410156"/>
      </g>
     </g>
    </g>
    <g id="ytick_5">
     <g id="line2d_11">
      <g>
       <use xlink:href="#m518111edd8" x="54" y="109.2" style="stroke: #000000; stroke-width: 0.8"/>
      </g>
     </g>
     <g id="text_12">
      <!-- 0.8 -->
      <g transform="translate(31.096875 112.999219) scale(0.1 -0.1)">
       <use xlink:href="#DejaVuSans-30"/>
       <use xlink:href="#DejaVuSans-2e" x="63.623047"/>
       <use xlink:href="#DejaVuSans-38" x="95.410156"/>
      </g>
     </g>
    </g>
    <g id="ytick_6">
     <g id="line2d_12">
      <g>
       <use xlink:href="#m518111edd8" x="54" y="56.4" style="stroke: #000000; stroke-width: 0.8"/>
      </g>
     </g>
     <g id="text_13">
      <!-- 1.0 -->
      <g transform="translate(31.096875 60.199219) scale(0.1 -0.1)">
       <use xlink:href="#DejaVuSans-31"/>
       <use xlink:href="#DejaVuSans-2e" x="63.623047"/>
       <use xlink:href="#DejaVuSans-30" x="95.410156"/>
      </g>
     </g>
    </g>
    <g id="text_14">
     <!-- Sensitivity (True Positive Rate) -->
     <g transform="translate(25.017187 257.850781) rotate(-90) scale(0.1 -0.1)">
      <defs>
       <path id="DejaVuSans-6e" d="M 3513 2113 
L 3513 0 
L 2938 0 
L 2938 2094 
Q 2938 2591 2744 2837 
Q 2550 3084 2163 3084 
Q 1697 3084 1428 2787 
Q 1159 2491 1159 1978 
L 1159 0 
L 581 0 
L 581 3500 
L 1159 3500 
L 1159 2956 
Q 1366 3272 1645 3428 
Q 1925 3584 2291 3584 
Q 2894 3584 3203 3211 
Q 3513 2838 3513 2113 
z
" transform="scale(0.015625)"/>
       <path id="DejaVuSans-54" d="M -19 4666 
L 3928 4666 
L 3928 4134 
L 2272 4134 
L 2272 0 
L 1638 0 
L 1638 4134 
L -19 4134 
L -19 4666 
z
" transform="scale(0.015625)"/>
       <path id="DejaVuSans-72" d="M 2631 2963 
Q 2534 3019 2420 3045 
Q 2306 3072 2169 3072 
Q 1681 3072 1420 2755 
Q 1159 2438 1159 1844 
L 1159 0 
L 581 0 
L 581 3500 
L 1159 3500 
L 1159 2956 
Q 1341 3275 1631 3429 
Q 1922 3584 2338 3584 
Q 2397 3584 2469 3576 
Q 2541 3569 2628 3553 
L 2631 2963 
z
" transform="scale(0.015625)"/>
       <path id="DejaVuSans-75" d="M 544 1381 
L 544 3500 
L 1119 3500 
L 1119 1403 
Q 1119 906 1312 657 
Q 1506 409 1894 409 
Q 2359 409 2629 706 
Q 2900 1003 2900 1516 
L 2900 3500 
L 3475 3500 
L 3475 0 
L 2900 0 
L 2900 538 
Q 2691 219 2414 64 
Q 2138 -91 1772 -91 
Q 1169 -91 856 284 
Q 544 659 544 1381 
z
M 1991 3584 
L 1991 3584 
z
" transform="scale(0.015625)"/>
      </defs>
      <use xlink:href="#DejaVuSans-53"/>
      <use xlink:href="#DejaVuSans-65" x="63.476562"/>
      <use xlink:href="#DejaVuSans-6e" x="125"/>
      <use xlink:href="#DejaVuSans-73" x="188.378906"/>
      <use xlink:href="#DejaVuSans-69" x="240.478516"/>
      <use xlink:href="#DejaVuSans-74" x="268.261719"/>
      <use xlink:href="#DejaVuSans-69" x="307.470703"/>
      <use xlink:href="#DejaVuSans-76" x="335.253906"/>
      <use xlink:href="#DejaVuSans-69" x="394.433594"/>
      <use xlink:href="#DejaVuSans-74" x="422.216797"/>
      <use xlink:href="#DejaVuSans-79" x="461.425781"/>
      <use xlink:href="#DejaVuSans-20" x="520.605469"/>
      <use xlink:href="#DejaVuSans-28" x="552.392578"/>
      <use xlink:href="#DejaVuSans-54" x="591.40625"/>
      <use xlink:href="#DejaVuSans-72" x="637.740234"/>
      <use xlink:href="#DejaVuSans-75" x="678.853516"/>
      <use xlink:href="#DejaVuSans-65" x="742.232422"/>
      <use xlink:href="#DejaVuSans-20" x="803.755859"/>
      <use xlink:href="#DejaVuSans-50" x="835.542969"/>
      <use xlink:href="#DejaVuSans-6f" x="892.220703"/>
      <use xlink:href="#DejaVuSans-73" x="953.402344"/>
      <use xlink:href="#DejaVuSans-69" x="1005.501953"/>
      <use xlink:href="#DejaVuSans-74" x="1033.285156"/>
      <use xlink:href="#DejaVuSans-69" x="1072.494141"/>
      <use xlink:href="#DejaVuSans-76" x="1100.277344"/>
      <use xlink:href="#DejaVuSans-65" x="1159.457031"/>
      <use xlink:href="#DejaVuSans-20" x="1220.980469"/>
      <use xlink:href="#DejaVuSans-52" x="1252.767578"/>
      <use xlink:href="#DejaVuSans-61" x="1320"/>
      <use xlink:href="#DejaVuSans-74" x="1381.279297"/>
      <use xlink:href="#DejaVuSans-65" x="1420.488281"/>
      <use xlink:href="#DejaVuSans-29" x="1482.011719"/>
     </g>
    </g>
   </g>
   <g id="line2d_13">
    <path d="M 54 320.4 
L 54 315.848276 
L 54 247.572414 
L 60.087273 247.572414 
L 60.087273 192.951724 
L 66.174545 192.951724 
L 66.174545 133.77931 
L 84.436364 133.77931 
L 84.436364 124.675862 
L 90.523636 124.675862 
L 90.523636 70.055172 
L 108.785455 70.055172 
L 108.785455 60.951724 
L 358.363636 60.951724 
L 358.363636 56.4 
L 388.8 56.4 
" clip-path="url(#pf887e4a152)" style="fill: none; stroke: #4169e1; stroke-width: 2; stroke-linecap: square"/>
   </g>
   <g id="line2d_14">
    <path d="M 54 320.4 
L 54 315.848276 
L 54 233.917241 
L 60.087273 233.917241 
L 60.087273 215.710345 
L 66.174545 215.710345 
L 66.174545 174.744828 
L 72.261818 174.744828 
L 72.261818 70.055172 
L 102.698182 70.055172 
L 102.698182 65.503448 
L 114.872727 65.503448 
L 114.872727 60.951724 
L 334.014545 60.951724 
L 334.014545 56.4 
L 388.8 56.4 
" clip-path="url(#pf887e4a152)" style="fill: none; stroke: #228b22; stroke-width: 2; stroke-linecap: square"/>
   </g>
   <g id="line2d_15">
    <path d="M 54 320.4 
L 54 315.848276 
L 54 252.124138 
L 60.087273 252.124138 
L 60.087273 192.951724 
L 66.174545 192.951724 
L 66.174545 147.434483 
L 72.261818 147.434483 
L 72.261818 133.77931 
L 90.523636 133.77931 
L 90.523636 70.055172 
L 108.785455 70.055172 
L 108.785455 65.503448 
L 169.658182 65.503448 
L 169.658182 60.951724 
L 358.363636 60.951724 
L 358.363636 56.4 
L 388.8 56.4 
" clip-path="url(#pf887e4a152)" style="fill: none; stroke: #ff8c00; stroke-width: 2; stroke-linecap: square"/>
   </g>
   <g id="line2d_16">
    <path d="M 54 320.4 
L 54 315.848276 
L 54 224.813793 
L 60.087273 224.813793 
L 60.087273 211.158621 
L 66.174545 211.158621 
L 66.174545 174.744828 
L 72.261818 174.744828 
L 72.261818 138.331034 
L 78.349091 138.331034 
L 78.349091 70.055172 
L 108.785455 70.055172 
L 108.785455 60.951724 
L 327.927273 60.951724 
L 327.927273 56.4 
L 388.8 56.4 
" clip-path="url(#pf887e4a152)" style="fill: none; stroke: #9370db; stroke-width: 2; stroke-linecap: square"/>
   </g>
   <g id="line2d_17">
    <path d="M 54 320.4 
L 54 315.848276 
L 54 165.641379 
L 60.087273 165.641379 
L 60.087273 115.572414 
L 66.174545 115.572414 
L 66.174545 97.365517 
L 72.261818 97.365517 
L 72.261818 79.158621 
L 84.436364 79.158621 
L 84.436364 74.606897 
L 102.698182 74.606897 
L 102.698182 60.951724 
L 218.356364 60.951724 
L 218.356364 56.4 
L 388.8 56.4 
" clip-path="url(#pf887e4a152)" style="fill: none; stroke: #774936; stroke-width: 2; stroke-linecap: square"/>
   </g>
   <g id="line2d_18">
    <path d="M 54 320.4 
L 54 315.848276 
L 54 243.02069 
L 60.087273 243.02069 
L 60.087273 229.365517 
L 66.174545 229.365517 
L 66.174545 179.296552 
L 72.261818 179.296552 
L 72.261818 170.193103 
L 78.349091 170.193103 
L 78.349091 165.641379 
L 84.436364 165.641379 
L 84.436364 151.986207 
L 90.523636 151.986207 
L 90.523636 70.055172 
L 114.872727 70.055172 
L 114.872727 65.503448 
L 133.134545 65.503448 
L 133.134545 60.951724 
L 340.101818 60.951724 
L 340.101818 56.4 
L 388.8 56.4 
" clip-path="url(#pf887e4a152)" style="fill: none; stroke: #b5179e; stroke-width: 2; stroke-linecap: square"/>
   </g>
   <g id="line2d_19">
    <path d="M 54 320.4 
L 54 315.848276 
L 54 156.537931 
L 60.087273 156.537931 
L 60.087273 106.468966 
L 66.174545 106.468966 
L 66.174545 88.262069 
L 72.261818 88.262069 
L 72.261818 79.158621 
L 78.349091 79.158621 
L 78.349091 74.606897 
L 102.698182 74.606897 
L 102.698182 70.055172 
L 108.785455 70.055172 
L 108.785455 60.951724 
L 218.356364 60.951724 
L 218.356364 56.4 
L 388.8 56.4 
" clip-path="url(#pf887e4a152)" style="fill: none; stroke: #ff6347; stroke-width: 2; stroke-linecap: square"/>
   </g>
   <g id="line2d_20">
    <path d="M 54 320.4 
L 388.8 56.4 
" clip-path="url(#pf887e4a152)" style="fill: none; stroke-dasharray: 7.4,3.2; stroke-dashoffset: 0; stroke: #000080; stroke-width: 2"/>
   </g>
   <g id="patch_3">
    <path d="M 54 320.4 
L 54 43.2 
" style="fill: none; stroke: #000000; stroke-width: 0.8; stroke-linejoin: miter; stroke-linecap: square"/>
   </g>
   <g id="patch_4">
    <path d="M 388.8 320.4 
L 388.8 43.2 
" style="fill: none; stroke: #000000; stroke-width: 0.8; stroke-linejoin: miter; stroke-linecap: square"/>
   </g>
   <g id="patch_5">
    <path d="M 54 320.4 
L 388.8 320.4 
" style="fill: none; stroke: #000000; stroke-width: 0.8; stroke-linejoin: miter; stroke-linecap: square"/>
   </g>
   <g id="patch_6">
    <path d="M 54 43.2 
L 388.8 43.2 
" style="fill: none; stroke: #000000; stroke-width: 0.8; stroke-linejoin: miter; stroke-linecap: square"/>
   </g>
   <g id="text_15">
    <!-- Roc Curves under Independent Test (Ensemble) -->
    <g transform="translate(78.644063 37.2) scale(0.12 -0.12)">
     <defs>
      <path id="DejaVuSans-43" d="M 4122 4306 
L 4122 3641 
Q 3803 3938 3442 4084 
Q 3081 4231 2675 4231 
Q 1875 4231 1450 3742 
Q 1025 3253 1025 2328 
Q 1025 1406 1450 917 
Q 1875 428 2675 428 
Q 3081 428 3442 575 
Q 3803 722 4122 1019 
L 4122 359 
Q 3791 134 3420 21 
Q 3050 -91 2638 -91 
Q 1578 -91 968 557 
Q 359 1206 359 2328 
Q 359 3453 968 4101 
Q 1578 4750 2638 4750 
Q 3056 4750 3426 4639 
Q 3797 4528 4122 4306 
z
" transform="scale(0.015625)"/>
      <path id="DejaVuSans-64" d="M 2906 2969 
L 2906 4863 
L 3481 4863 
L 3481 0 
L 2906 0 
L 2906 525 
Q 2725 213 2448 61 
Q 2172 -91 1784 -91 
Q 1150 -91 751 415 
Q 353 922 353 1747 
Q 353 2572 751 3078 
Q 1150 3584 1784 3584 
Q 2172 3584 2448 3432 
Q 2725 3281 2906 2969 
z
M 947 1747 
Q 947 1113 1208 752 
Q 1469 391 1925 391 
Q 2381 391 2643 752 
Q 2906 1113 2906 1747 
Q 2906 2381 2643 2742 
Q 2381 3103 1925 3103 
Q 1469 3103 1208 2742 
Q 947 2381 947 1747 
z
" transform="scale(0.015625)"/>
      <path id="DejaVuSans-49" d="M 628 4666 
L 1259 4666 
L 1259 0 
L 628 0 
L 628 4666 
z
" transform="scale(0.015625)"/>
      <path id="DejaVuSans-45" d="M 628 4666 
L 3578 4666 
L 3578 4134 
L 1259 4134 
L 1259 2753 
L 3481 2753 
L 3481 2222 
L 1259 2222 
L 1259 531 
L 3634 531 
L 3634 0 
L 628 0 
L 628 4666 
z
" transform="scale(0.015625)"/>
      <path id="DejaVuSans-6d" d="M 3328 2828 
Q 3544 3216 3844 3400 
Q 4144 3584 4550 3584 
Q 5097 3584 5394 3201 
Q 5691 2819 5691 2113 
L 5691 0 
L 5113 0 
L 5113 2094 
Q 5113 2597 4934 2840 
Q 4756 3084 4391 3084 
Q 3944 3084 3684 2787 
Q 3425 2491 3425 1978 
L 3425 0 
L 2847 0 
L 2847 2094 
Q 2847 2600 2669 2842 
Q 2491 3084 2119 3084 
Q 1678 3084 1418 2786 
Q 1159 2488 1159 1978 
L 1159 0 
L 581 0 
L 581 3500 
L 1159 3500 
L 1159 2956 
Q 1356 3278 1631 3431 
Q 1906 3584 2284 3584 
Q 2666 3584 2933 3390 
Q 3200 3197 3328 2828 
z
" transform="scale(0.015625)"/>
      <path id="DejaVuSans-62" d="M 3116 1747 
Q 3116 2381 2855 2742 
Q 2594 3103 2138 3103 
Q 1681 3103 1420 2742 
Q 1159 2381 1159 1747 
Q 1159 1113 1420 752 
Q 1681 391 2138 391 
Q 2594 391 2855 752 
Q 3116 1113 3116 1747 
z
M 1159 2969 
Q 1341 3281 1617 3432 
Q 1894 3584 2278 3584 
Q 2916 3584 3314 3078 
Q 3713 2572 3713 1747 
Q 3713 922 3314 415 
Q 2916 -91 2278 -91 
Q 1894 -91 1617 61 
Q 1341 213 1159 525 
L 1159 0 
L 581 0 
L 581 4863 
L 1159 4863 
L 1159 2969 
z
" transform="scale(0.015625)"/>
     </defs>
     <use xlink:href="#DejaVuSans-52"/>
     <use xlink:href="#DejaVuSans-6f" x="64.982422"/>
     <use xlink:href="#DejaVuSans-63" x="126.164062"/>
     <use xlink:href="#DejaVuSans-20" x="181.144531"/>
     <use xlink:href="#DejaVuSans-43" x="212.931641"/>
     <use xlink:href="#DejaVuSans-75" x="282.755859"/>
     <use xlink:href="#DejaVuSans-72" x="346.134766"/>
     <use xlink:href="#DejaVuSans-76" x="387.248047"/>
     <use xlink:href="#DejaVuSans-65" x="446.427734"/>
     <use xlink:href="#DejaVuSans-73" x="507.951172"/>
     <use xlink:href="#DejaVuSans-20" x="560.050781"/>
     <use xlink:href="#DejaVuSans-75" x="591.837891"/>
     <use xlink:href="#DejaVuSans-6e" x="655.216797"/>
     <use xlink:href="#DejaVuSans-64" x="718.595703"/>
     <use xlink:href="#DejaVuSans-65" x="782.072266"/>
     <use xlink:href="#DejaVuSans-72" x="843.595703"/>
     <use xlink:href="#DejaVuSans-20" x="884.708984"/>
     <use xlink:href="#DejaVuSans-49" x="916.496094"/>
     <use xlink:href="#DejaVuSans-6e" x="945.988281"/>
     <use xlink:href="#DejaVuSans-64" x="1009.367188"/>
     <use xlink:href="#DejaVuSans-65" x="1072.84375"/>
     <use xlink:href="#DejaVuSans-70" x="1134.367188"/>
     <use xlink:href="#DejaVuSans-65" x="1197.84375"/>
     <use xlink:href="#DejaVuSans-6e" x="1259.367188"/>
     <use xlink:href="#DejaVuSans-64" x="1322.746094"/>
     <use xlink:href="#DejaVuSans-65" x="1386.222656"/>
     <use xlink:href="#DejaVuSans-6e" x="1447.746094"/>
     <use xlink:href="#DejaVuSans-74" x="1511.125"/>
     <use xlink:href="#DejaVuSans-20" x="1550.333984"/>
     <use xlink:href="#DejaVuSans-54" x="1582.121094"/>
     <use xlink:href="#DejaVuSans-65" x="1626.205078"/>
     <use xlink:href="#DejaVuSans-73" x="1687.728516"/>
     <use xlink:href="#DejaVuSans-74" x="1739.828125"/>
     <use xlink:href="#DejaVuSans-20" x="1779.037109"/>
     <use xlink:href="#DejaVuSans-28" x="1810.824219"/>
     <use xlink:href="#DejaVuSans-45" x="1849.837891"/>
     <use xlink:href="#DejaVuSans-6e" x="1913.021484"/>
     <use xlink:href="#DejaVuSans-73" x="1976.400391"/>
     <use xlink:href="#DejaVuSans-65" x="2028.5"/>
     <use xlink:href="#DejaVuSans-6d" x="2090.023438"/>
     <use xlink:href="#DejaVuSans-62" x="2187.435547"/>
     <use xlink:href="#DejaVuSans-6c" x="2250.912109"/>
     <use xlink:href="#DejaVuSans-65" x="2278.695312"/>
     <use xlink:href="#DejaVuSans-29" x="2340.21875"/>
    </g>
   </g>
   <g id="legend_1">
    <g id="patch_7">
     <path d="M 59.573938 317.75 
L 385.09 317.75 
Q 386.15 317.75 386.15 316.69 
L 386.15 261.732313 
Q 386.15 260.672313 385.09 260.672313 
L 59.573938 260.672313 
Q 58.513938 260.672313 58.513938 261.732313 
L 58.513938 316.69 
Q 58.513938 317.75 59.573938 317.75 
z
" style="fill: #ffffff; opacity: 0.8; stroke: #cccccc; stroke-linejoin: miter"/>
    </g>
    <g id="line2d_21">
     <path d="M 60.633938 264.964484 
L 65.933938 264.964484 
L 71.233938 264.964484 
" style="fill: none; stroke: #4169e1; stroke-width: 2; stroke-linecap: square"/>
    </g>
    <g id="text_16">
     <!-- MobileViT_xx_s (SWE) + SVM (SWE) + GoogLeNet (SWE) + ResNet-101 (US) + SVM (US) + GoogLeNet (US) (0.9411) -->
     <g transform="translate(75.473938 266.819484) scale(0.053 -0.053)">
      <defs>
       <path id="DejaVuSans-4d" d="M 628 4666 
L 1569 4666 
L 2759 1491 
L 3956 4666 
L 4897 4666 
L 4897 0 
L 4281 0 
L 4281 4097 
L 3078 897 
L 2444 897 
L 1241 4097 
L 1241 0 
L 628 0 
L 628 4666 
z
" transform="scale(0.015625)"/>
       <path id="DejaVuSans-56" d="M 1831 0 
L 50 4666 
L 709 4666 
L 2188 738 
L 3669 4666 
L 4325 4666 
L 2547 0 
L 1831 0 
z
" transform="scale(0.015625)"/>
       <path id="DejaVuSans-5f" d="M 3263 -1063 
L 3263 -1509 
L -63 -1509 
L -63 -1063 
L 3263 -1063 
z
" transform="scale(0.015625)"/>
       <path id="DejaVuSans-78" d="M 3513 3500 
L 2247 1797 
L 3578 0 
L 2900 0 
L 1881 1375 
L 863 0 
L 184 0 
L 1544 1831 
L 300 3500 
L 978 3500 
L 1906 2253 
L 2834 3500 
L 3513 3500 
z
" transform="scale(0.015625)"/>
       <path id="DejaVuSans-57" d="M 213 4666 
L 850 4666 
L 1831 722 
L 2809 4666 
L 3519 4666 
L 4500 722 
L 5478 4666 
L 6119 4666 
L 4947 0 
L 4153 0 
L 3169 4050 
L 2175 0 
L 1381 0 
L 213 4666 
z
" transform="scale(0.015625)"/>
       <path id="DejaVuSans-2b" d="M 2944 4013 
L 2944 2272 
L 4684 2272 
L 4684 1741 
L 2944 1741 
L 2944 0 
L 2419 0 
L 2419 1741 
L 678 1741 
L 678 2272 
L 2419 2272 
L 2419 4013 
L 2944 4013 
z
" transform="scale(0.015625)"/>
       <path id="DejaVuSans-47" d="M 3809 666 
L 3809 1919 
L 2778 1919 
L 2778 2438 
L 4434 2438 
L 4434 434 
Q 4069 175 3628 42 
Q 3188 -91 2688 -91 
Q 1594 -91 976 548 
Q 359 1188 359 2328 
Q 359 3472 976 4111 
Q 1594 4750 2688 4750 
Q 3144 4750 3555 4637 
Q 3966 4525 4313 4306 
L 4313 3634 
Q 3963 3931 3569 4081 
Q 3175 4231 2741 4231 
Q 1884 4231 1454 3753 
Q 1025 3275 1025 2328 
Q 1025 1384 1454 906 
Q 1884 428 2741 428 
Q 3075 428 3337 486 
Q 3600 544 3809 666 
z
" transform="scale(0.015625)"/>
       <path id="DejaVuSans-67" d="M 2906 1791 
Q 2906 2416 2648 2759 
Q 2391 3103 1925 3103 
Q 1463 3103 1205 2759 
Q 947 2416 947 1791 
Q 947 1169 1205 825 
Q 1463 481 1925 481 
Q 2391 481 2648 825 
Q 2906 1169 2906 1791 
z
M 3481 434 
Q 3481 -459 3084 -895 
Q 2688 -1331 1869 -1331 
Q 1566 -1331 1297 -1286 
Q 1028 -1241 775 -1147 
L 775 -588 
Q 1028 -725 1275 -790 
Q 1522 -856 1778 -856 
Q 2344 -856 2625 -561 
Q 2906 -266 2906 331 
L 2906 616 
Q 2728 306 2450 153 
Q 2172 0 1784 0 
Q 1141 0 747 490 
Q 353 981 353 1791 
Q 353 2603 747 3093 
Q 1141 3584 1784 3584 
Q 2172 3584 2450 3431 
Q 2728 3278 2906 2969 
L 2906 3500 
L 3481 3500 
L 3481 434 
z
" transform="scale(0.015625)"/>
       <path id="DejaVuSans-4c" d="M 628 4666 
L 1259 4666 
L 1259 531 
L 3531 531 
L 3531 0 
L 628 0 
L 628 4666 
z
" transform="scale(0.015625)"/>
       <path id="DejaVuSans-4e" d="M 628 4666 
L 1478 4666 
L 3547 763 
L 3547 4666 
L 4159 4666 
L 4159 0 
L 3309 0 
L 1241 3903 
L 1241 0 
L 628 0 
L 628 4666 
z
" transform="scale(0.015625)"/>
       <path id="DejaVuSans-55" d="M 556 4666 
L 1191 4666 
L 1191 1831 
Q 1191 1081 1462 751 
Q 1734 422 2344 422 
Q 2950 422 3222 751 
Q 3494 1081 3494 1831 
L 3494 4666 
L 4128 4666 
L 4128 1753 
Q 4128 841 3676 375 
Q 3225 -91 2344 -91 
Q 1459 -91 1007 375 
Q 556 841 556 1753 
L 556 4666 
z
" transform="scale(0.015625)"/>
       <path id="DejaVuSans-39" d="M 703 97 
L 703 672 
Q 941 559 1184 500 
Q 1428 441 1663 441 
Q 2288 441 2617 861 
Q 2947 1281 2994 2138 
Q 2813 1869 2534 1725 
Q 2256 1581 1919 1581 
Q 1219 1581 811 2004 
Q 403 2428 403 3163 
Q 403 3881 828 4315 
Q 1253 4750 1959 4750 
Q 2769 4750 3195 4129 
Q 3622 3509 3622 2328 
Q 3622 1225 3098 567 
Q 2575 -91 1691 -91 
Q 1453 -91 1209 -44 
Q 966 3 703 97 
z
M 1959 2075 
Q 2384 2075 2632 2365 
Q 2881 2656 2881 3163 
Q 2881 3666 2632 3958 
Q 2384 4250 1959 4250 
Q 1534 4250 1286 3958 
Q 1038 3666 1038 3163 
Q 1038 2656 1286 2365 
Q 1534 2075 1959 2075 
z
" transform="scale(0.015625)"/>
      </defs>
      <use xlink:href="#DejaVuSans-4d"/>
      <use xlink:href="#DejaVuSans-6f" x="86.279297"/>
      <use xlink:href="#DejaVuSans-62" x="147.460938"/>
      <use xlink:href="#DejaVuSans-69" x="210.9375"/>
      <use xlink:href="#DejaVuSans-6c" x="238.720703"/>
      <use xlink:href="#DejaVuSans-65" x="266.503906"/>
      <use xlink:href="#DejaVuSans-56" x="328.027344"/>
      <use xlink:href="#DejaVuSans-69" x="394.185547"/>
      <use xlink:href="#DejaVuSans-54" x="421.96875"/>
      <use xlink:href="#DejaVuSans-5f" x="483.052734"/>
      <use xlink:href="#DejaVuSans-78" x="533.052734"/>
      <use xlink:href="#DejaVuSans-78" x="592.232422"/>
      <use xlink:href="#DejaVuSans-5f" x="651.412109"/>
      <use xlink:href="#DejaVuSans-73" x="701.412109"/>
      <use xlink:href="#DejaVuSans-20" x="753.511719"/>
      <use xlink:href="#DejaVuSans-28" x="785.298828"/>
      <use xlink:href="#DejaVuSans-53" x="824.3125"/>
      <use xlink:href="#DejaVuSans-57" x="887.789062"/>
      <use xlink:href="#DejaVuSans-45" x="986.666016"/>
      <use xlink:href="#DejaVuSans-29" x="1049.849609"/>
      <use xlink:href="#DejaVuSans-20" x="1088.863281"/>
      <use xlink:href="#DejaVuSans-2b" x="1120.650391"/>
      <use xlink:href="#DejaVuSans-20" x="1204.439453"/>
      <use xlink:href="#DejaVuSans-53" x="1236.226562"/>
      <use xlink:href="#DejaVuSans-56" x="1299.703125"/>
      <use xlink:href="#DejaVuSans-4d" x="1368.111328"/>
      <use xlink:href="#DejaVuSans-20" x="1454.390625"/>
      <use xlink:href="#DejaVuSans-28" x="1486.177734"/>
      <use xlink:href="#DejaVuSans-53" x="1525.191406"/>
      <use xlink:href="#DejaVuSans-57" x="1588.667969"/>
      <use xlink:href="#DejaVuSans-45" x="1687.544922"/>
      <use xlink:href="#DejaVuSans-29" x="1750.728516"/>
      <use xlink:href="#DejaVuSans-20" x="1789.742188"/>
      <use xlink:href="#DejaVuSans-2b" x="1821.529297"/>
      <use xlink:href="#DejaVuSans-20" x="1905.318359"/>
      <use xlink:href="#DejaVuSans-47" x="1937.105469"/>
      <use xlink:href="#DejaVuSans-6f" x="2014.595703"/>
      <use xlink:href="#DejaVuSans-6f" x="2075.777344"/>
      <use xlink:href="#DejaVuSans-67" x="2136.958984"/>
      <use xlink:href="#DejaVuSans-4c" x="2200.435547"/>
      <use xlink:href="#DejaVuSans-65" x="2254.398438"/>
      <use xlink:href="#DejaVuSans-4e" x="2315.921875"/>
      <use xlink:href="#DejaVuSans-65" x="2390.726562"/>
      <use xlink:href="#DejaVuSans-74" x="2452.25"/>
      <use xlink:href="#DejaVuSans-20" x="2491.458984"/>
      <use xlink:href="#DejaVuSans-28" x="2523.246094"/>
      <use xlink:href="#DejaVuSans-53" x="2562.259766"/>
      <use xlink:href="#DejaVuSans-57" x="2625.736328"/>
      <use xlink:href="#DejaVuSans-45" x="2724.613281"/>
      <use xlink:href="#DejaVuSans-29" x="2787.796875"/>
      <use xlink:href="#DejaVuSans-20" x="2826.810547"/>
      <use xlink:href="#DejaVuSans-2b" x="2858.597656"/>
      <use xlink:href="#DejaVuSans-20" x="2942.386719"/>
      <use xlink:href="#DejaVuSans-52" x="2974.173828"/>
      <use xlink:href="#DejaVuSans-65" x="3039.15625"/>
      <use xlink:href="#DejaVuSans-73" x="3100.679688"/>
      <use xlink:href="#DejaVuSans-4e" x="3152.779297"/>
      <use xlink:href="#DejaVuSans-65" x="3227.583984"/>
      <use xlink:href="#DejaVuSans-74" x="3289.107422"/>
      <use xlink:href="#DejaVuSans-2d" x="3328.316406"/>
      <use xlink:href="#DejaVuSans-31" x="3364.400391"/>
      <use xlink:href="#DejaVuSans-30" x="3428.023438"/>
      <use xlink:href="#DejaVuSans-31" x="3491.646484"/>
      <use xlink:href="#DejaVuSans-20" x="3555.269531"/>
      <use xlink:href="#DejaVuSans-28" x="3587.056641"/>
      <use xlink:href="#DejaVuSans-55" x="3626.070312"/>
      <use xlink:href="#DejaVuSans-53" x="3699.263672"/>
      <use xlink:href="#DejaVuSans-29" x="3762.740234"/>
      <use xlink:href="#DejaVuSans-20" x="3801.753906"/>
      <use xlink:href="#DejaVuSans-2b" x="3833.541016"/>
      <use xlink:href="#DejaVuSans-20" x="3917.330078"/>
      <use xlink:href="#DejaVuSans-53" x="3949.117188"/>
      <use xlink:href="#DejaVuSans-56" x="4012.59375"/>
      <use xlink:href="#DejaVuSans-4d" x="4081.001953"/>
      <use xlink:href="#DejaVuSans-20" x="4167.28125"/>
      <use xlink:href="#DejaVuSans-28" x="4199.068359"/>
      <use xlink:href="#DejaVuSans-55" x="4238.082031"/>
      <use xlink:href="#DejaVuSans-53" x="4311.275391"/>
      <use xlink:href="#DejaVuSans-29" x="4374.751953"/>
      <use xlink:href="#DejaVuSans-20" x="4413.765625"/>
      <use xlink:href="#DejaVuSans-2b" x="4445.552734"/>
      <use xlink:href="#DejaVuSans-20" x="4529.341797"/>
      <use xlink:href="#DejaVuSans-47" x="4561.128906"/>
      <use xlink:href="#DejaVuSans-6f" x="4638.619141"/>
      <use xlink:href="#DejaVuSans-6f" x="4699.800781"/>
      <use xlink:href="#DejaVuSans-67" x="4760.982422"/>
      <use xlink:href="#DejaVuSans-4c" x="4824.458984"/>
      <use xlink:href="#DejaVuSans-65" x="4878.421875"/>
      <use xlink:href="#DejaVuSans-4e" x="4939.945312"/>
      <use xlink:href="#DejaVuSans-65" x="5014.75"/>
      <use xlink:href="#DejaVuSans-74" x="5076.273438"/>
      <use xlink:href="#DejaVuSans-20" x="5115.482422"/>
      <use xlink:href="#DejaVuSans-28" x="5147.269531"/>
      <use xlink:href="#DejaVuSans-55" x="5186.283203"/>
      <use xlink:href="#DejaVuSans-53" x="5259.476562"/>
      <use xlink:href="#DejaVuSans-29" x="5322.953125"/>
      <use xlink:href="#DejaVuSans-20" x="5361.966797"/>
      <use xlink:href="#DejaVuSans-28" x="5393.753906"/>
      <use xlink:href="#DejaVuSans-30" x="5432.767578"/>
      <use xlink:href="#DejaVuSans-2e" x="5496.390625"/>
      <use xlink:href="#DejaVuSans-39" x="5528.177734"/>
      <use xlink:href="#DejaVuSans-34" x="5591.800781"/>
      <use xlink:href="#DejaVuSans-31" x="5655.423828"/>
      <use xlink:href="#DejaVuSans-31" x="5719.046875"/>
      <use xlink:href="#DejaVuSans-29" x="5782.669922"/>
     </g>
    </g>
    <g id="line2d_22">
     <path d="M 60.633938 272.891297 
L 65.933938 272.891297 
L 71.233938 272.891297 
" style="fill: none; stroke: #228b22; stroke-width: 2; stroke-linecap: square"/>
    </g>
    <g id="text_17">
     <!-- MobileViT_xx_s (SWE) + SVM (SWE) + GoogLeNet (SWE) + ResNet-101 (US) + SVM (US) (0.9514) -->
     <g transform="translate(75.473938 274.746297) scale(0.053 -0.053)">
      <defs>
       <path id="DejaVuSans-35" d="M 691 4666 
L 3169 4666 
L 3169 4134 
L 1269 4134 
L 1269 2991 
Q 1406 3038 1543 3061 
Q 1681 3084 1819 3084 
Q 2600 3084 3056 2656 
Q 3513 2228 3513 1497 
Q 3513 744 3044 326 
Q 2575 -91 1722 -91 
Q 1428 -91 1123 -41 
Q 819 9 494 109 
L 494 744 
Q 775 591 1075 516 
Q 1375 441 1709 441 
Q 2250 441 2565 725 
Q 2881 1009 2881 1497 
Q 2881 1984 2565 2268 
Q 2250 2553 1709 2553 
Q 1456 2553 1204 2497 
Q 953 2441 691 2322 
L 691 4666 
z
" transform="scale(0.015625)"/>
      </defs>
      <use xlink:href="#DejaVuSans-4d"/>
      <use xlink:href="#DejaVuSans-6f" x="86.279297"/>
      <use xlink:href="#DejaVuSans-62" x="147.460938"/>
      <use xlink:href="#DejaVuSans-69" x="210.9375"/>
      <use xlink:href="#DejaVuSans-6c" x="238.720703"/>
      <use xlink:href="#DejaVuSans-65" x="266.503906"/>
      <use xlink:href="#DejaVuSans-56" x="328.027344"/>
      <use xlink:href="#DejaVuSans-69" x="394.185547"/>
      <use xlink:href="#DejaVuSans-54" x="421.96875"/>
      <use xlink:href="#DejaVuSans-5f" x="483.052734"/>
      <use xlink:href="#DejaVuSans-78" x="533.052734"/>
      <use xlink:href="#DejaVuSans-78" x="592.232422"/>
      <use xlink:href="#DejaVuSans-5f" x="651.412109"/>
      <use xlink:href="#DejaVuSans-73" x="701.412109"/>
      <use xlink:href="#DejaVuSans-20" x="753.511719"/>
      <use xlink:href="#DejaVuSans-28" x="785.298828"/>
      <use xlink:href="#DejaVuSans-53" x="824.3125"/>
      <use xlink:href="#DejaVuSans-57" x="887.789062"/>
      <use xlink:href="#DejaVuSans-45" x="986.666016"/>
      <use xlink:href="#DejaVuSans-29" x="1049.849609"/>
      <use xlink:href="#DejaVuSans-20" x="1088.863281"/>
      <use xlink:href="#DejaVuSans-2b" x="1120.650391"/>
      <use xlink:href="#DejaVuSans-20" x="1204.439453"/>
      <use xlink:href="#DejaVuSans-53" x="1236.226562"/>
      <use xlink:href="#DejaVuSans-56" x="1299.703125"/>
      <use xlink:href="#DejaVuSans-4d" x="1368.111328"/>
      <use xlink:href="#DejaVuSans-20" x="1454.390625"/>
      <use xlink:href="#DejaVuSans-28" x="1486.177734"/>
      <use xlink:href="#DejaVuSans-53" x="1525.191406"/>
      <use xlink:href="#DejaVuSans-57" x="1588.667969"/>
      <use xlink:href="#DejaVuSans-45" x="1687.544922"/>
      <use xlink:href="#DejaVuSans-29" x="1750.728516"/>
      <use xlink:href="#DejaVuSans-20" x="1789.742188"/>
      <use xlink:href="#DejaVuSans-2b" x="1821.529297"/>
      <use xlink:href="#DejaVuSans-20" x="1905.318359"/>
      <use xlink:href="#DejaVuSans-47" x="1937.105469"/>
      <use xlink:href="#DejaVuSans-6f" x="2014.595703"/>
      <use xlink:href="#DejaVuSans-6f" x="2075.777344"/>
      <use xlink:href="#DejaVuSans-67" x="2136.958984"/>
      <use xlink:href="#DejaVuSans-4c" x="2200.435547"/>
      <use xlink:href="#DejaVuSans-65" x="2254.398438"/>
      <use xlink:href="#DejaVuSans-4e" x="2315.921875"/>
      <use xlink:href="#DejaVuSans-65" x="2390.726562"/>
      <use xlink:href="#DejaVuSans-74" x="2452.25"/>
      <use xlink:href="#DejaVuSans-20" x="2491.458984"/>
      <use xlink:href="#DejaVuSans-28" x="2523.246094"/>
      <use xlink:href="#DejaVuSans-53" x="2562.259766"/>
      <use xlink:href="#DejaVuSans-57" x="2625.736328"/>
      <use xlink:href="#DejaVuSans-45" x="2724.613281"/>
      <use xlink:href="#DejaVuSans-29" x="2787.796875"/>
      <use xlink:href="#DejaVuSans-20" x="2826.810547"/>
      <use xlink:href="#DejaVuSans-2b" x="2858.597656"/>
      <use xlink:href="#DejaVuSans-20" x="2942.386719"/>
      <use xlink:href="#DejaVuSans-52" x="2974.173828"/>
      <use xlink:href="#DejaVuSans-65" x="3039.15625"/>
      <use xlink:href="#DejaVuSans-73" x="3100.679688"/>
      <use xlink:href="#DejaVuSans-4e" x="3152.779297"/>
      <use xlink:href="#DejaVuSans-65" x="3227.583984"/>
      <use xlink:href="#DejaVuSans-74" x="3289.107422"/>
      <use xlink:href="#DejaVuSans-2d" x="3328.316406"/>
      <use xlink:href="#DejaVuSans-31" x="3364.400391"/>
      <use xlink:href="#DejaVuSans-30" x="3428.023438"/>
      <use xlink:href="#DejaVuSans-31" x="3491.646484"/>
      <use xlink:href="#DejaVuSans-20" x="3555.269531"/>
      <use xlink:href="#DejaVuSans-28" x="3587.056641"/>
      <use xlink:href="#DejaVuSans-55" x="3626.070312"/>
      <use xlink:href="#DejaVuSans-53" x="3699.263672"/>
      <use xlink:href="#DejaVuSans-29" x="3762.740234"/>
      <use xlink:href="#DejaVuSans-20" x="3801.753906"/>
      <use xlink:href="#DejaVuSans-2b" x="3833.541016"/>
      <use xlink:href="#DejaVuSans-20" x="3917.330078"/>
      <use xlink:href="#DejaVuSans-53" x="3949.117188"/>
      <use xlink:href="#DejaVuSans-56" x="4012.59375"/>
      <use xlink:href="#DejaVuSans-4d" x="4081.001953"/>
      <use xlink:href="#DejaVuSans-20" x="4167.28125"/>
      <use xlink:href="#DejaVuSans-28" x="4199.068359"/>
      <use xlink:href="#DejaVuSans-55" x="4238.082031"/>
      <use xlink:href="#DejaVuSans-53" x="4311.275391"/>
      <use xlink:href="#DejaVuSans-29" x="4374.751953"/>
      <use xlink:href="#DejaVuSans-20" x="4413.765625"/>
      <use xlink:href="#DejaVuSans-28" x="4445.552734"/>
      <use xlink:href="#DejaVuSans-30" x="4484.566406"/>
      <use xlink:href="#DejaVuSans-2e" x="4548.189453"/>
      <use xlink:href="#DejaVuSans-39" x="4579.976562"/>
      <use xlink:href="#DejaVuSans-35" x="4643.599609"/>
      <use xlink:href="#DejaVuSans-31" x="4707.222656"/>
      <use xlink:href="#DejaVuSans-34" x="4770.845703"/>
      <use xlink:href="#DejaVuSans-29" x="4834.46875"/>
     </g>
    </g>
    <g id="line2d_23">
     <path d="M 60.633938 280.818109 
L 65.933938 280.818109 
L 71.233938 280.818109 
" style="fill: none; stroke: #ff8c00; stroke-width: 2; stroke-linecap: square"/>
    </g>
    <g id="text_18">
     <!-- MobileViT_xx_s (SWE) + SVM (SWE) + ResNet-101 (US) + SVM (US) + GoogLeNet (US) (0.9361) -->
     <g transform="translate(75.473938 282.673109) scale(0.053 -0.053)">
      <defs>
       <path id="DejaVuSans-33" d="M 2597 2516 
Q 3050 2419 3304 2112 
Q 3559 1806 3559 1356 
Q 3559 666 3084 287 
Q 2609 -91 1734 -91 
Q 1441 -91 1130 -33 
Q 819 25 488 141 
L 488 750 
Q 750 597 1062 519 
Q 1375 441 1716 441 
Q 2309 441 2620 675 
Q 2931 909 2931 1356 
Q 2931 1769 2642 2001 
Q 2353 2234 1838 2234 
L 1294 2234 
L 1294 2753 
L 1863 2753 
Q 2328 2753 2575 2939 
Q 2822 3125 2822 3475 
Q 2822 3834 2567 4026 
Q 2313 4219 1838 4219 
Q 1578 4219 1281 4162 
Q 984 4106 628 3988 
L 628 4550 
Q 988 4650 1302 4700 
Q 1616 4750 1894 4750 
Q 2613 4750 3031 4423 
Q 3450 4097 3450 3541 
Q 3450 3153 3228 2886 
Q 3006 2619 2597 2516 
z
" transform="scale(0.015625)"/>
      </defs>
      <use xlink:href="#DejaVuSans-4d"/>
      <use xlink:href="#DejaVuSans-6f" x="86.279297"/>
      <use xlink:href="#DejaVuSans-62" x="147.460938"/>
      <use xlink:href="#DejaVuSans-69" x="210.9375"/>
      <use xlink:href="#DejaVuSans-6c" x="238.720703"/>
      <use xlink:href="#DejaVuSans-65" x="266.503906"/>
      <use xlink:href="#DejaVuSans-56" x="328.027344"/>
      <use xlink:href="#DejaVuSans-69" x="394.185547"/>
      <use xlink:href="#DejaVuSans-54" x="421.96875"/>
      <use xlink:href="#DejaVuSans-5f" x="483.052734"/>
      <use xlink:href="#DejaVuSans-78" x="533.052734"/>
      <use xlink:href="#DejaVuSans-78" x="592.232422"/>
      <use xlink:href="#DejaVuSans-5f" x="651.412109"/>
      <use xlink:href="#DejaVuSans-73" x="701.412109"/>
      <use xlink:href="#DejaVuSans-20" x="753.511719"/>
      <use xlink:href="#DejaVuSans-28" x="785.298828"/>
      <use xlink:href="#DejaVuSans-53" x="824.3125"/>
      <use xlink:href="#DejaVuSans-57" x="887.789062"/>
      <use xlink:href="#DejaVuSans-45" x="986.666016"/>
      <use xlink:href="#DejaVuSans-29" x="1049.849609"/>
      <use xlink:href="#DejaVuSans-20" x="1088.863281"/>
      <use xlink:href="#DejaVuSans-2b" x="1120.650391"/>
      <use xlink:href="#DejaVuSans-20" x="1204.439453"/>
      <use xlink:href="#DejaVuSans-53" x="1236.226562"/>
      <use xlink:href="#DejaVuSans-56" x="1299.703125"/>
      <use xlink:href="#DejaVuSans-4d" x="1368.111328"/>
      <use xlink:href="#DejaVuSans-20" x="1454.390625"/>
      <use xlink:href="#DejaVuSans-28" x="1486.177734"/>
      <use xlink:href="#DejaVuSans-53" x="1525.191406"/>
      <use xlink:href="#DejaVuSans-57" x="1588.667969"/>
      <use xlink:href="#DejaVuSans-45" x="1687.544922"/>
      <use xlink:href="#DejaVuSans-29" x="1750.728516"/>
      <use xlink:href="#DejaVuSans-20" x="1789.742188"/>
      <use xlink:href="#DejaVuSans-2b" x="1821.529297"/>
      <use xlink:href="#DejaVuSans-20" x="1905.318359"/>
      <use xlink:href="#DejaVuSans-52" x="1937.105469"/>
      <use xlink:href="#DejaVuSans-65" x="2002.087891"/>
      <use xlink:href="#DejaVuSans-73" x="2063.611328"/>
      <use xlink:href="#DejaVuSans-4e" x="2115.710938"/>
      <use xlink:href="#DejaVuSans-65" x="2190.515625"/>
      <use xlink:href="#DejaVuSans-74" x="2252.039062"/>
      <use xlink:href="#DejaVuSans-2d" x="2291.248047"/>
      <use xlink:href="#DejaVuSans-31" x="2327.332031"/>
      <use xlink:href="#DejaVuSans-30" x="2390.955078"/>
      <use xlink:href="#DejaVuSans-31" x="2454.578125"/>
      <use xlink:href="#DejaVuSans-20" x="2518.201172"/>
      <use xlink:href="#DejaVuSans-28" x="2549.988281"/>
      <use xlink:href="#DejaVuSans-55" x="2589.001953"/>
      <use xlink:href="#DejaVuSans-53" x="2662.195312"/>
      <use xlink:href="#DejaVuSans-29" x="2725.671875"/>
      <use xlink:href="#DejaVuSans-20" x="2764.685547"/>
      <use xlink:href="#DejaVuSans-2b" x="2796.472656"/>
      <use xlink:href="#DejaVuSans-20" x="2880.261719"/>
      <use xlink:href="#DejaVuSans-53" x="2912.048828"/>
      <use xlink:href="#DejaVuSans-56" x="2975.525391"/>
      <use xlink:href="#DejaVuSans-4d" x="3043.933594"/>
      <use xlink:href="#DejaVuSans-20" x="3130.212891"/>
      <use xlink:href="#DejaVuSans-28" x="3162"/>
      <use xlink:href="#DejaVuSans-55" x="3201.013672"/>
      <use xlink:href="#DejaVuSans-53" x="3274.207031"/>
      <use xlink:href="#DejaVuSans-29" x="3337.683594"/>
      <use xlink:href="#DejaVuSans-20" x="3376.697266"/>
      <use xlink:href="#DejaVuSans-2b" x="3408.484375"/>
      <use xlink:href="#DejaVuSans-20" x="3492.273438"/>
      <use xlink:href="#DejaVuSans-47" x="3524.060547"/>
      <use xlink:href="#DejaVuSans-6f" x="3601.550781"/>
      <use xlink:href="#DejaVuSans-6f" x="3662.732422"/>
      <use xlink:href="#DejaVuSans-67" x="3723.914062"/>
      <use xlink:href="#DejaVuSans-4c" x="3787.390625"/>
      <use xlink:href="#DejaVuSans-65" x="3841.353516"/>
      <use xlink:href="#DejaVuSans-4e" x="3902.876953"/>
      <use xlink:href="#DejaVuSans-65" x="3977.681641"/>
      <use xlink:href="#DejaVuSans-74" x="4039.205078"/>
      <use xlink:href="#DejaVuSans-20" x="4078.414062"/>
      <use xlink:href="#DejaVuSans-28" x="4110.201172"/>
      <use xlink:href="#DejaVuSans-55" x="4149.214844"/>
      <use xlink:href="#DejaVuSans-53" x="4222.408203"/>
      <use xlink:href="#DejaVuSans-29" x="4285.884766"/>
      <use xlink:href="#DejaVuSans-20" x="4324.898438"/>
      <use xlink:href="#DejaVuSans-28" x="4356.685547"/>
      <use xlink:href="#DejaVuSans-30" x="4395.699219"/>
      <use xlink:href="#DejaVuSans-2e" x="4459.322266"/>
      <use xlink:href="#DejaVuSans-39" x="4491.109375"/>
      <use xlink:href="#DejaVuSans-33" x="4554.732422"/>
      <use xlink:href="#DejaVuSans-36" x="4618.355469"/>
      <use xlink:href="#DejaVuSans-31" x="4681.978516"/>
      <use xlink:href="#DejaVuSans-29" x="4745.601562"/>
     </g>
    </g>
    <g id="line2d_24">
     <path d="M 60.633938 288.744922 
L 65.933938 288.744922 
L 71.233938 288.744922 
" style="fill: none; stroke: #9370db; stroke-width: 2; stroke-linecap: square"/>
    </g>
    <g id="text_19">
     <!-- MobileViT_xx_s (SWE) + SVM (SWE) + ResNet-101 (US) + SVM (US) (0.9480) -->
     <g transform="translate(75.473938 290.599922) scale(0.053 -0.053)">
      <use xlink:href="#DejaVuSans-4d"/>
      <use xlink:href="#DejaVuSans-6f" x="86.279297"/>
      <use xlink:href="#DejaVuSans-62" x="147.460938"/>
      <use xlink:href="#DejaVuSans-69" x="210.9375"/>
      <use xlink:href="#DejaVuSans-6c" x="238.720703"/>
      <use xlink:href="#DejaVuSans-65" x="266.503906"/>
      <use xlink:href="#DejaVuSans-56" x="328.027344"/>
      <use xlink:href="#DejaVuSans-69" x="394.185547"/>
      <use xlink:href="#DejaVuSans-54" x="421.96875"/>
      <use xlink:href="#DejaVuSans-5f" x="483.052734"/>
      <use xlink:href="#DejaVuSans-78" x="533.052734"/>
      <use xlink:href="#DejaVuSans-78" x="592.232422"/>
      <use xlink:href="#DejaVuSans-5f" x="651.412109"/>
      <use xlink:href="#DejaVuSans-73" x="701.412109"/>
      <use xlink:href="#DejaVuSans-20" x="753.511719"/>
      <use xlink:href="#DejaVuSans-28" x="785.298828"/>
      <use xlink:href="#DejaVuSans-53" x="824.3125"/>
      <use xlink:href="#DejaVuSans-57" x="887.789062"/>
      <use xlink:href="#DejaVuSans-45" x="986.666016"/>
      <use xlink:href="#DejaVuSans-29" x="1049.849609"/>
      <use xlink:href="#DejaVuSans-20" x="1088.863281"/>
      <use xlink:href="#DejaVuSans-2b" x="1120.650391"/>
      <use xlink:href="#DejaVuSans-20" x="1204.439453"/>
      <use xlink:href="#DejaVuSans-53" x="1236.226562"/>
      <use xlink:href="#DejaVuSans-56" x="1299.703125"/>
      <use xlink:href="#DejaVuSans-4d" x="1368.111328"/>
      <use xlink:href="#DejaVuSans-20" x="1454.390625"/>
      <use xlink:href="#DejaVuSans-28" x="1486.177734"/>
      <use xlink:href="#DejaVuSans-53" x="1525.191406"/>
      <use xlink:href="#DejaVuSans-57" x="1588.667969"/>
      <use xlink:href="#DejaVuSans-45" x="1687.544922"/>
      <use xlink:href="#DejaVuSans-29" x="1750.728516"/>
      <use xlink:href="#DejaVuSans-20" x="1789.742188"/>
      <use xlink:href="#DejaVuSans-2b" x="1821.529297"/>
      <use xlink:href="#DejaVuSans-20" x="1905.318359"/>
      <use xlink:href="#DejaVuSans-52" x="1937.105469"/>
      <use xlink:href="#DejaVuSans-65" x="2002.087891"/>
      <use xlink:href="#DejaVuSans-73" x="2063.611328"/>
      <use xlink:href="#DejaVuSans-4e" x="2115.710938"/>
      <use xlink:href="#DejaVuSans-65" x="2190.515625"/>
      <use xlink:href="#DejaVuSans-74" x="2252.039062"/>
      <use xlink:href="#DejaVuSans-2d" x="2291.248047"/>
      <use xlink:href="#DejaVuSans-31" x="2327.332031"/>
      <use xlink:href="#DejaVuSans-30" x="2390.955078"/>
      <use xlink:href="#DejaVuSans-31" x="2454.578125"/>
      <use xlink:href="#DejaVuSans-20" x="2518.201172"/>
      <use xlink:href="#DejaVuSans-28" x="2549.988281"/>
      <use xlink:href="#DejaVuSans-55" x="2589.001953"/>
      <use xlink:href="#DejaVuSans-53" x="2662.195312"/>
      <use xlink:href="#DejaVuSans-29" x="2725.671875"/>
      <use xlink:href="#DejaVuSans-20" x="2764.685547"/>
      <use xlink:href="#DejaVuSans-2b" x="2796.472656"/>
      <use xlink:href="#DejaVuSans-20" x="2880.261719"/>
      <use xlink:href="#DejaVuSans-53" x="2912.048828"/>
      <use xlink:href="#DejaVuSans-56" x="2975.525391"/>
      <use xlink:href="#DejaVuSans-4d" x="3043.933594"/>
      <use xlink:href="#DejaVuSans-20" x="3130.212891"/>
      <use xlink:href="#DejaVuSans-28" x="3162"/>
      <use xlink:href="#DejaVuSans-55" x="3201.013672"/>
      <use xlink:href="#DejaVuSans-53" x="3274.207031"/>
      <use xlink:href="#DejaVuSans-29" x="3337.683594"/>
      <use xlink:href="#DejaVuSans-20" x="3376.697266"/>
      <use xlink:href="#DejaVuSans-28" x="3408.484375"/>
      <use xlink:href="#DejaVuSans-30" x="3447.498047"/>
      <use xlink:href="#DejaVuSans-2e" x="3511.121094"/>
      <use xlink:href="#DejaVuSans-39" x="3542.908203"/>
      <use xlink:href="#DejaVuSans-34" x="3606.53125"/>
      <use xlink:href="#DejaVuSans-38" x="3670.154297"/>
      <use xlink:href="#DejaVuSans-30" x="3733.777344"/>
      <use xlink:href="#DejaVuSans-29" x="3797.400391"/>
     </g>
    </g>
    <g id="line2d_25">
     <path d="M 60.633938 296.671734 
L 65.933938 296.671734 
L 71.233938 296.671734 
" style="fill: none; stroke: #774936; stroke-width: 2; stroke-linecap: square"/>
    </g>
    <g id="text_20">
     <!-- MobileViT_xx_s (SWE) + SVM (SWE) + ResNet-101 (US) (0.9727) -->
     <g transform="translate(75.473938 298.526734) scale(0.053 -0.053)">
      <defs>
       <path id="DejaVuSans-37" d="M 525 4666 
L 3525 4666 
L 3525 4397 
L 1831 0 
L 1172 0 
L 2766 4134 
L 525 4134 
L 525 4666 
z
" transform="scale(0.015625)"/>
      </defs>
      <use xlink:href="#DejaVuSans-4d"/>
      <use xlink:href="#DejaVuSans-6f" x="86.279297"/>
      <use xlink:href="#DejaVuSans-62" x="147.460938"/>
      <use xlink:href="#DejaVuSans-69" x="210.9375"/>
      <use xlink:href="#DejaVuSans-6c" x="238.720703"/>
      <use xlink:href="#DejaVuSans-65" x="266.503906"/>
      <use xlink:href="#DejaVuSans-56" x="328.027344"/>
      <use xlink:href="#DejaVuSans-69" x="394.185547"/>
      <use xlink:href="#DejaVuSans-54" x="421.96875"/>
      <use xlink:href="#DejaVuSans-5f" x="483.052734"/>
      <use xlink:href="#DejaVuSans-78" x="533.052734"/>
      <use xlink:href="#DejaVuSans-78" x="592.232422"/>
      <use xlink:href="#DejaVuSans-5f" x="651.412109"/>
      <use xlink:href="#DejaVuSans-73" x="701.412109"/>
      <use xlink:href="#DejaVuSans-20" x="753.511719"/>
      <use xlink:href="#DejaVuSans-28" x="785.298828"/>
      <use xlink:href="#DejaVuSans-53" x="824.3125"/>
      <use xlink:href="#DejaVuSans-57" x="887.789062"/>
      <use xlink:href="#DejaVuSans-45" x="986.666016"/>
      <use xlink:href="#DejaVuSans-29" x="1049.849609"/>
      <use xlink:href="#DejaVuSans-20" x="1088.863281"/>
      <use xlink:href="#DejaVuSans-2b" x="1120.650391"/>
      <use xlink:href="#DejaVuSans-20" x="1204.439453"/>
      <use xlink:href="#DejaVuSans-53" x="1236.226562"/>
      <use xlink:href="#DejaVuSans-56" x="1299.703125"/>
      <use xlink:href="#DejaVuSans-4d" x="1368.111328"/>
      <use xlink:href="#DejaVuSans-20" x="1454.390625"/>
      <use xlink:href="#DejaVuSans-28" x="1486.177734"/>
      <use xlink:href="#DejaVuSans-53" x="1525.191406"/>
      <use xlink:href="#DejaVuSans-57" x="1588.667969"/>
      <use xlink:href="#DejaVuSans-45" x="1687.544922"/>
      <use xlink:href="#DejaVuSans-29" x="1750.728516"/>
      <use xlink:href="#DejaVuSans-20" x="1789.742188"/>
      <use xlink:href="#DejaVuSans-2b" x="1821.529297"/>
      <use xlink:href="#DejaVuSans-20" x="1905.318359"/>
      <use xlink:href="#DejaVuSans-52" x="1937.105469"/>
      <use xlink:href="#DejaVuSans-65" x="2002.087891"/>
      <use xlink:href="#DejaVuSans-73" x="2063.611328"/>
      <use xlink:href="#DejaVuSans-4e" x="2115.710938"/>
      <use xlink:href="#DejaVuSans-65" x="2190.515625"/>
      <use xlink:href="#DejaVuSans-74" x="2252.039062"/>
      <use xlink:href="#DejaVuSans-2d" x="2291.248047"/>
      <use xlink:href="#DejaVuSans-31" x="2327.332031"/>
      <use xlink:href="#DejaVuSans-30" x="2390.955078"/>
      <use xlink:href="#DejaVuSans-31" x="2454.578125"/>
      <use xlink:href="#DejaVuSans-20" x="2518.201172"/>
      <use xlink:href="#DejaVuSans-28" x="2549.988281"/>
      <use xlink:href="#DejaVuSans-55" x="2589.001953"/>
      <use xlink:href="#DejaVuSans-53" x="2662.195312"/>
      <use xlink:href="#DejaVuSans-29" x="2725.671875"/>
      <use xlink:href="#DejaVuSans-20" x="2764.685547"/>
      <use xlink:href="#DejaVuSans-28" x="2796.472656"/>
      <use xlink:href="#DejaVuSans-30" x="2835.486328"/>
      <use xlink:href="#DejaVuSans-2e" x="2899.109375"/>
      <use xlink:href="#DejaVuSans-39" x="2930.896484"/>
      <use xlink:href="#DejaVuSans-37" x="2994.519531"/>
      <use xlink:href="#DejaVuSans-32" x="3058.142578"/>
      <use xlink:href="#DejaVuSans-37" x="3121.765625"/>
      <use xlink:href="#DejaVuSans-29" x="3185.388672"/>
     </g>
    </g>
    <g id="line2d_26">
     <path d="M 60.633938 304.598547 
L 65.933938 304.598547 
L 71.233938 304.598547 
" style="fill: none; stroke: #b5179e; stroke-width: 2; stroke-linecap: square"/>
    </g>
    <g id="text_21">
     <!-- MobileViT_xx_s (SWE) + ResNet-101 (US) + SVM (US) (0.9285) -->
     <g transform="translate(75.473938 306.453547) scale(0.053 -0.053)">
      <use xlink:href="#DejaVuSans-4d"/>
      <use xlink:href="#DejaVuSans-6f" x="86.279297"/>
      <use xlink:href="#DejaVuSans-62" x="147.460938"/>
      <use xlink:href="#DejaVuSans-69" x="210.9375"/>
      <use xlink:href="#DejaVuSans-6c" x="238.720703"/>
      <use xlink:href="#DejaVuSans-65" x="266.503906"/>
      <use xlink:href="#DejaVuSans-56" x="328.027344"/>
      <use xlink:href="#DejaVuSans-69" x="394.185547"/>
      <use xlink:href="#DejaVuSans-54" x="421.96875"/>
      <use xlink:href="#DejaVuSans-5f" x="483.052734"/>
      <use xlink:href="#DejaVuSans-78" x="533.052734"/>
      <use xlink:href="#DejaVuSans-78" x="592.232422"/>
      <use xlink:href="#DejaVuSans-5f" x="651.412109"/>
      <use xlink:href="#DejaVuSans-73" x="701.412109"/>
      <use xlink:href="#DejaVuSans-20" x="753.511719"/>
      <use xlink:href="#DejaVuSans-28" x="785.298828"/>
      <use xlink:href="#DejaVuSans-53" x="824.3125"/>
      <use xlink:href="#DejaVuSans-57" x="887.789062"/>
      <use xlink:href="#DejaVuSans-45" x="986.666016"/>
      <use xlink:href="#DejaVuSans-29" x="1049.849609"/>
      <use xlink:href="#DejaVuSans-20" x="1088.863281"/>
      <use xlink:href="#DejaVuSans-2b" x="1120.650391"/>
      <use xlink:href="#DejaVuSans-20" x="1204.439453"/>
      <use xlink:href="#DejaVuSans-52" x="1236.226562"/>
      <use xlink:href="#DejaVuSans-65" x="1301.208984"/>
      <use xlink:href="#DejaVuSans-73" x="1362.732422"/>
      <use xlink:href="#DejaVuSans-4e" x="1414.832031"/>
      <use xlink:href="#DejaVuSans-65" x="1489.636719"/>
      <use xlink:href="#DejaVuSans-74" x="1551.160156"/>
      <use xlink:href="#DejaVuSans-2d" x="1590.369141"/>
      <use xlink:href="#DejaVuSans-31" x="1626.453125"/>
      <use xlink:href="#DejaVuSans-30" x="1690.076172"/>
      <use xlink:href="#DejaVuSans-31" x="1753.699219"/>
      <use xlink:href="#DejaVuSans-20" x="1817.322266"/>
      <use xlink:href="#DejaVuSans-28" x="1849.109375"/>
      <use xlink:href="#DejaVuSans-55" x="1888.123047"/>
      <use xlink:href="#DejaVuSans-53" x="1961.316406"/>
      <use xlink:href="#DejaVuSans-29" x="2024.792969"/>
      <use xlink:href="#DejaVuSans-20" x="2063.806641"/>
      <use xlink:href="#DejaVuSans-2b" x="2095.59375"/>
      <use xlink:href="#DejaVuSans-20" x="2179.382812"/>
      <use xlink:href="#DejaVuSans-53" x="2211.169922"/>
      <use xlink:href="#DejaVuSans-56" x="2274.646484"/>
      <use xlink:href="#DejaVuSans-4d" x="2343.054688"/>
      <use xlink:href="#DejaVuSans-20" x="2429.333984"/>
      <use xlink:href="#DejaVuSans-28" x="2461.121094"/>
      <use xlink:href="#DejaVuSans-55" x="2500.134766"/>
      <use xlink:href="#DejaVuSans-53" x="2573.328125"/>
      <use xlink:href="#DejaVuSans-29" x="2636.804688"/>
      <use xlink:href="#DejaVuSans-20" x="2675.818359"/>
      <use xlink:href="#DejaVuSans-28" x="2707.605469"/>
      <use xlink:href="#DejaVuSans-30" x="2746.619141"/>
      <use xlink:href="#DejaVuSans-2e" x="2810.242188"/>
      <use xlink:href="#DejaVuSans-39" x="2842.029297"/>
      <use xlink:href="#DejaVuSans-32" x="2905.652344"/>
      <use xlink:href="#DejaVuSans-38" x="2969.275391"/>
      <use xlink:href="#DejaVuSans-35" x="3032.898438"/>
      <use xlink:href="#DejaVuSans-29" x="3096.521484"/>
     </g>
    </g>
    <g id="line2d_27">
     <path d="M 60.633938 312.525359 
L 65.933938 312.525359 
L 71.233938 312.525359 
" style="fill: none; stroke: #ff6347; stroke-width: 2; stroke-linecap: square"/>
    </g>
    <g id="text_22">
     <!-- MobileViT_xx_s (SWE) + ResNet-101 (US) (0.9743) -->
     <g transform="translate(75.473938 314.380359) scale(0.053 -0.053)">
      <use xlink:href="#DejaVuSans-4d"/>
      <use xlink:href="#DejaVuSans-6f" x="86.279297"/>
      <use xlink:href="#DejaVuSans-62" x="147.460938"/>
      <use xlink:href="#DejaVuSans-69" x="210.9375"/>
      <use xlink:href="#DejaVuSans-6c" x="238.720703"/>
      <use xlink:href="#DejaVuSans-65" x="266.503906"/>
      <use xlink:href="#DejaVuSans-56" x="328.027344"/>
      <use xlink:href="#DejaVuSans-69" x="394.185547"/>
      <use xlink:href="#DejaVuSans-54" x="421.96875"/>
      <use xlink:href="#DejaVuSans-5f" x="483.052734"/>
      <use xlink:href="#DejaVuSans-78" x="533.052734"/>
      <use xlink:href="#DejaVuSans-78" x="592.232422"/>
      <use xlink:href="#DejaVuSans-5f" x="651.412109"/>
      <use xlink:href="#DejaVuSans-73" x="701.412109"/>
      <use xlink:href="#DejaVuSans-20" x="753.511719"/>
      <use xlink:href="#DejaVuSans-28" x="785.298828"/>
      <use xlink:href="#DejaVuSans-53" x="824.3125"/>
      <use xlink:href="#DejaVuSans-57" x="887.789062"/>
      <use xlink:href="#DejaVuSans-45" x="986.666016"/>
      <use xlink:href="#DejaVuSans-29" x="1049.849609"/>
      <use xlink:href="#DejaVuSans-20" x="1088.863281"/>
      <use xlink:href="#DejaVuSans-2b" x="1120.650391"/>
      <use xlink:href="#DejaVuSans-20" x="1204.439453"/>
      <use xlink:href="#DejaVuSans-52" x="1236.226562"/>
      <use xlink:href="#DejaVuSans-65" x="1301.208984"/>
      <use xlink:href="#DejaVuSans-73" x="1362.732422"/>
      <use xlink:href="#DejaVuSans-4e" x="1414.832031"/>
      <use xlink:href="#DejaVuSans-65" x="1489.636719"/>
      <use xlink:href="#DejaVuSans-74" x="1551.160156"/>
      <use xlink:href="#DejaVuSans-2d" x="1590.369141"/>
      <use xlink:href="#DejaVuSans-31" x="1626.453125"/>
      <use xlink:href="#DejaVuSans-30" x="1690.076172"/>
      <use xlink:href="#DejaVuSans-31" x="1753.699219"/>
      <use xlink:href="#DejaVuSans-20" x="1817.322266"/>
      <use xlink:href="#DejaVuSans-28" x="1849.109375"/>
      <use xlink:href="#DejaVuSans-55" x="1888.123047"/>
      <use xlink:href="#DejaVuSans-53" x="1961.316406"/>
      <use xlink:href="#DejaVuSans-29" x="2024.792969"/>
      <use xlink:href="#DejaVuSans-20" x="2063.806641"/>
      <use xlink:href="#DejaVuSans-28" x="2095.59375"/>
      <use xlink:href="#DejaVuSans-30" x="2134.607422"/>
      <use xlink:href="#DejaVuSans-2e" x="2198.230469"/>
      <use xlink:href="#DejaVuSans-39" x="2230.017578"/>
      <use xlink:href="#DejaVuSans-37" x="2293.640625"/>
      <use xlink:href="#DejaVuSans-34" x="2357.263672"/>
      <use xlink:href="#DejaVuSans-33" x="2420.886719"/>
      <use xlink:href="#DejaVuSans-29" x="2484.509766"/>
     </g>
    </g>
   </g>
  </g>
 </g>
 <defs>
  <clipPath id="pf887e4a152">
   <rect x="54" y="43.2" width="334.8" height="277.2"/>
  </clipPath>
 </defs>
</svg>
